<svg width="40" height="40" viewBox="0 0 40 40" fill="none" xmlns="http://www.w3.org/2000/svg">
<g clip-path="url(#clip0_7_391)">
<path d="M19.921 0C16.0594 0 12.3136 1.11055 9.08831 3.21148C8.73597 3.44102 8.6358 3.91367 8.86439 4.26734C9.09306 4.62102 9.56394 4.72148 9.91628 4.49211C12.8944 2.55219 16.3539 1.52672 19.921 1.52672C30.0689 1.52672 38.3249 9.81383 38.3249 20C38.3249 30.1862 30.0689 38.4733 19.921 38.4733C9.77315 38.4733 1.51719 30.1862 1.51719 20C1.51719 14.8057 3.71492 9.82156 7.54679 6.3257C7.85757 6.04211 7.88045 5.55937 7.598 5.24734C7.31547 4.93531 6.83455 4.91227 6.52369 5.19594C2.37544 8.98055 -0.00378418 14.3764 -0.00378418 20C-0.00378418 31.0281 8.93436 40 19.921 40C30.9077 40 39.8458 31.0281 39.8458 20C39.8458 8.97187 30.9077 0 19.921 0Z" fill="#F88500"/>
<path d="M33.457 10.928C33.2236 10.5777 32.7512 10.4834 32.4022 10.718C32.053 10.9523 31.9594 11.4265 32.193 11.7769C33.8164 14.2128 34.6745 17.0562 34.6745 20C34.6745 28.1658 28.0561 34.8091 19.921 34.8091C11.7859 34.8091 5.16752 28.1658 5.16752 20C5.16752 11.8342 11.7859 5.19084 19.921 5.19084C23.8017 5.19084 27.4662 6.691 30.2392 9.41498C30.5395 9.70998 31.0211 9.70467 31.3146 9.40334C31.6085 9.10209 31.6032 8.61873 31.303 8.32389C28.244 5.31897 24.2019 3.66412 19.921 3.66412C10.9472 3.66412 3.64655 10.9923 3.64655 20C3.64655 29.0076 10.9472 36.3358 19.921 36.3358C28.8948 36.3358 36.1954 29.0076 36.1954 20C36.1954 16.753 35.2485 13.6158 33.457 10.928Z" fill="#F88500"/>
<path d="M19.921 8.34613C17.4148 8.34613 15.0284 9.13504 13.0197 10.6277C12.682 10.8786 12.6111 11.3565 12.8609 11.6953C13.111 12.0345 13.5871 12.1057 13.9245 11.8547C15.6695 10.5582 17.743 9.87285 19.921 9.87285C25.4841 9.87285 30.0101 14.416 30.0101 20C30.0101 24.6576 26.8707 28.6981 22.3756 29.8255C21.9681 29.9278 21.7204 30.3421 21.8222 30.7512C21.9086 31.0982 22.2187 31.3297 22.5595 31.3297C22.6205 31.3297 22.6826 31.3223 22.7445 31.3068C27.9179 30.009 31.5311 25.3596 31.5311 20C31.5311 13.5739 26.3228 8.34613 19.921 8.34613Z" fill="#F88500"/>
<path d="M13.5389 27.8439C11.183 25.9101 9.83195 23.0511 9.83195 20C9.83195 17.8885 10.4726 15.8654 11.6847 14.1496C11.9277 13.8057 11.8468 13.3292 11.5042 13.0853C11.1617 12.8414 10.6869 12.9226 10.444 13.2665C9.0485 15.2419 8.31097 17.5704 8.31097 20C8.31097 23.511 9.8655 26.8007 12.5761 29.0257C12.7174 29.1417 12.8878 29.1982 13.0571 29.1982C13.2774 29.1982 13.4959 29.1026 13.6462 28.9181C13.9121 28.5916 13.864 28.1107 13.5389 27.8439Z" fill="#F88500"/>
<path d="M26.5119 19.2366C26.0918 19.2366 25.7515 19.5783 25.7515 20C25.7515 23.2271 23.136 25.8524 19.921 25.8524C16.7061 25.8524 14.0906 23.2271 14.0906 20C14.0906 16.7729 16.7061 14.1476 19.921 14.1476C20.3412 14.1476 20.6815 13.8059 20.6815 13.3842C20.6815 12.9626 20.3412 12.6208 19.921 12.6208C15.8674 12.6208 12.5696 15.9311 12.5696 20C12.5696 24.0689 15.8674 27.3791 19.921 27.3791C23.9746 27.3791 27.2724 24.0689 27.2724 20C27.2724 19.5783 26.932 19.2366 26.5119 19.2366Z" fill="#F88500"/>
<path d="M19.921 16.8957C18.2158 16.8957 16.8284 18.2883 16.8284 20C16.8284 21.7116 18.2158 23.1043 19.921 23.1043C21.6262 23.1043 23.0136 21.7116 23.0136 20C23.0136 18.2883 21.6262 16.8957 19.921 16.8957ZM19.921 21.5776C19.0543 21.5776 18.3494 20.8699 18.3494 20C18.3494 19.1301 19.0543 18.4224 19.921 18.4224C20.7877 18.4224 21.4926 19.1301 21.4926 20C21.4926 20.8699 20.7877 21.5776 19.921 21.5776Z" fill="#F88500"/>
</g>
<defs>
<clipPath id="clip0_7_391">
<rect width="39.8496" height="40" fill="white" transform="translate(-0.00378418)"/>
</clipPath>
</defs>
</svg>
